{
  "accessors": [
    {
      "bufferView": 2,
      "componentType": 5126,
      "count": 9907,
      "max": [
        269.701416015625,
        169.04183959960938,
        1003.7021484375
      ],
      "min": [
        -280.595947265625,
        -322.317138671875,
        -1.3780540227890015
      ],
      "type": "VEC3"
    },
    {
      "bufferView": 2,
      "byteOffset": 118884,
      "componentType": 5126,
      "count": 9907,
      "max": [
        1.0,
        1.0,
        1.0
      ],
      "min": [
        -1.0,
        -1.0,
        -1.0
      ],
      "type": "VEC3"
    },
    {
      "bufferView": 3,
      "componentType": 5126,
      "count": 9907,
      "max": [
        1.0,
        0.9999920725822449,
        1.0,
        1.0
      ],
      "min": [
        -1.0,
        -1.0,
        -1.0,
        -1.0
      ],
      "type": "VEC4"
    },
    {
      "bufferView": 1,
      "componentType": 5126,
      "count": 9907,
      "max": [
        0.9988240003585815,
        0.9974769949913025
      ],
      "min": [
        0.002778999973088503,
        0.001888000057078898
      ],
      "type": "VEC2"
    },
    {
      "bufferView": 0,
      "componentType": 5125,
      "count": 44412,
      "type": "SCALAR"
    },
    {
      "bufferView": 2,
      "byteOffset": 237768,
      "componentType": 5126,
      "count": 3901,
      "max": [
        280.8404541015625,
        169.13278198242188,
        1007.1051025390625
      ],
      "min": [
        -198.41180419921875,
        -188.62486267089844,
        -1.3780540227890015
      ],
      "type": "VEC3"
    },
    {
      "bufferView": 2,
      "byteOffset": 284580,
      "componentType": 5126,
      "count": 3901,
      "max": [
        1.0,
        1.0,
        1.0
      ],
      "min": [
        -1.0,
        -1.0,
        -1.0
      ],
      "type": "VEC3"
    },
    {
      "bufferView": 3,
      "byteOffset": 158512,
      "componentType": 5126,
      "count": 3901,
      "max": [
        1.0,
        0.9999910593032837,
        1.0,
        1.0
      ],
      "min": [
        -0.9999985694885254,
        -0.9999999403953552,
        -0.9999883770942688,
        -1.0
      ],
      "type": "VEC4"
    },
    {
      "bufferView": 1,
      "byteOffset": 79256,
      "componentType": 5126,
      "count": 3901,
      "max": [
        0.9995989799499512,
        0.9968270063400269
      ],
      "min": [
        0.004118000157177448,
        0.005652999971061945
      ],
      "type": "VEC2"
    },
    {
      "bufferView": 0,
      "byteOffset": 177648,
      "componentType": 5125,
      "count": 17256,
      "type": "SCALAR"
    }
  ],
  "asset": {
    "extras": {
      "author": "SasiDatla (https://sketchfab.com/Sasi.Datla)",
      "license": "CC-BY-4.0 (http://creativecommons.org/licenses/by/4.0/)",
      "source": "https://sketchfab.com/3d-models/tripod-final-7018a6ab87024f1d90b58b0cbb6bb39e",
      "title": "Tripod Final"
    },
    "generator": "Sketchfab-12.67.0",
    "version": "2.0"
  },
  "bufferViews": [
    {
      "buffer": 0,
      "byteLength": 246672,
      "name": "floatBufferViews",
      "target": 34963
    },
    {
      "buffer": 0,
      "byteLength": 110464,
      "byteOffset": 246672,
      "byteStride": 8,
      "name": "floatBufferViews",
      "target": 34962
    },
    {
      "buffer": 0,
      "byteLength": 331392,
      "byteOffset": 357136,
      "byteStride": 12,
      "name": "floatBufferViews",
      "target": 34962
    },
    {
      "buffer": 0,
      "byteLength": 220928,
      "byteOffset": 688528,
      "byteStride": 16,
      "name": "floatBufferViews",
      "target": 34962
    }
  ],
  "buffers": [
    {
      "byteLength": 909456,
      "uri": "scene.bin"
    }
  ],
  "images": [
    {
      "uri": "textures/blinn1SG_baseColor.png"
    },
    {
      "uri": "textures/blinn1SG_metallicRoughness.png"
    },
    {
      "uri": "textures/blinn1SG_normal.png"
    }
  ],
  "materials": [
    {
      "doubleSided": true,
      "name": "blinn1SG",
      "normalTexture": {
        "index": 2
      },
      "pbrMetallicRoughness": {
        "baseColorTexture": {
          "index": 0
        },
        "metallicRoughnessTexture": {
          "index": 1
        },
        "roughnessFactor": 0.4224466463414634
      }
    }
  ],
  "meshes": [
    {
      "name": "Object_0",
      "primitives": [
        {
          "attributes": {
            "NORMAL": 1,
            "POSITION": 0,
            "TANGENT": 2,
            "TEXCOORD_0": 3
          },
          "indices": 4,
          "material": 0,
          "mode": 4
        }
      ]
    },
    {
      "name": "Object_1",
      "primitives": [
        {
          "attributes": {
            "NORMAL": 6,
            "POSITION": 5,
            "TANGENT": 7,
            "TEXCOORD_0": 8
          },
          "indices": 9,
          "material": 0,
          "mode": 4
        }
      ]
    }
  ],
  "nodes": [
    {
      "children": [
        1
      ],
      "matrix": [
        1.0,
        0.0,
        0.0,
        0.0,
        0.0,
        2.220446049250313e-16,
        -1.0,
        0.0,
        0.0,
        1.0,
        2.220446049250313e-16,
        0.0,
        0.0,
        0.0,
        0.0,
        1.0
      ],
      "name": "Sketchfab_model"
    },
    {
      "children": [
        2,
        3
      ],
      "name": "tripod_final.obj.cleaner.materialmerger.gles"
    },
    {
      "mesh": 0,
      "name": "Object_2"
    },
    {
      "mesh": 1,
      "name": "Object_3"
    }
  ],
  "samplers": [
    {
      "magFilter": 9729,
      "minFilter": 9987,
      "wrapS": 10497,
      "wrapT": 10497
    }
  ],
  "scene": 0,
  "scenes": [
    {
      "name": "Sketchfab_Scene",
      "nodes": [
        0
      ]
    }
  ],
  "textures": [
    {
      "sampler": 0,
      "source": 0
    },
    {
      "sampler": 0,
      "source": 1
    },
    {
      "sampler": 0,
      "source": 2
    }
  ]
}
