{
  "accessors": [
    {
      "bufferView": 2,
      "componentType": 5126,
      "count": 6481,
      "max": [
        1.2084959745407104,
        1.9743390083312988,
        6.811169147491455
      ],
      "min": [
        -1.2084959745407104,
        -3.446732997894287,
        -0.23930999636650085
      ],
      "type": "VEC3"
    },
    {
      "bufferView": 2,
      "byteOffset": 77772,
      "componentType": 5126,
      "count": 6481,
      "max": [
        0.9999303817749023,
        0.9997119307518005,
        0.9999576807022095
      ],
      "min": [
        -0.9999303817749023,
        -0.9999903440475464,
        -0.9999741315841675
      ],
      "type": "VEC3"
    },
    {
      "bufferView": 3,
      "componentType": 5126,
      "count": 6481,
      "max": [
        0.9992765188217163,
        0.999984085559845,
        1.0,
        1.0
      ],
      "min": [
        -0.9992765188217163,
        -0.9999577403068542,
        -0.9999903440475464,
        -1.0
      ],
      "type": "VEC4"
    },
    {
      "bufferView": 1,
      "componentType": 5126,
      "count": 6481,
      "max": [
        0.9956049919128418,
        0.9399979710578918
      ],
      "min": [
        0.0021750000305473804,
        0.006446999963372946
      ],
      "type": "VEC2"
    },
    {
      "bufferView": 0,
      "componentType": 5125,
      "count": 37260,
      "type": "SCALAR"
    }
  ],
  "asset": {
    "extras": {
      "author": "PaperWyvern (https://sketchfab.com/xbryton)",
      "license": "CC-BY-4.0 (http://creativecommons.org/licenses/by/4.0/)",
      "source": "https://sketchfab.com/3d-models/rare-thrumbo-plushy-ad6d09a83b7e4ffeaa098fb3dfa61d2b",
      "title": "Rare Thrumbo Plushy"
    },
    "generator": "Sketchfab-12.67.0",
    "version": "2.0"
  },
  "bufferViews": [
    {
      "buffer": 0,
      "byteLength": 149040,
      "name": "floatBufferViews",
      "target": 34963
    },
    {
      "buffer": 0,
      "byteLength": 51848,
      "byteOffset": 149040,
      "byteStride": 8,
      "name": "floatBufferViews",
      "target": 34962
    },
    {
      "buffer": 0,
      "byteLength": 155544,
      "byteOffset": 200888,
      "byteStride": 12,
      "name": "floatBufferViews",
      "target": 34962
    },
    {
      "buffer": 0,
      "byteLength": 103696,
      "byteOffset": 356432,
      "byteStride": 16,
      "name": "floatBufferViews",
      "target": 34962
    }
  ],
  "buffers": [
    {
      "byteLength": 460128,
      "uri": "scene.bin"
    }
  ],
  "images": [
    {
      "uri": "textures/None_baseColor.png"
    },
    {
      "uri": "textures/None_metallicRoughness.png"
    },
    {
      "uri": "textures/None_normal.png"
    }
  ],
  "materials": [
    {
      "doubleSided": true,
      "name": "None",
      "normalTexture": {
        "index": 2
      },
      "occlusionTexture": {
        "index": 1
      },
      "pbrMetallicRoughness": {
        "baseColorTexture": {
          "index": 0
        },
        "metallicFactor": 0.0,
        "metallicRoughnessTexture": {
          "index": 1
        }
      }
    }
  ],
  "meshes": [
    {
      "name": "Object_0",
      "primitives": [
        {
          "attributes": {
            "NORMAL": 1,
            "POSITION": 0,
            "TANGENT": 2,
            "TEXCOORD_0": 3
          },
          "indices": 4,
          "material": 0,
          "mode": 4
        }
      ]
    }
  ],
  "nodes": [
    {
      "children": [
        1
      ],
      "matrix": [
        0.09067216515541077,
        0.0,
        0.0,
        0.0,
        0.0,
        2.0133265089630374e-17,
        -0.09067216515541077,
        0.0,
        0.0,
        0.09067216515541077,
        2.0133265089630374e-17,
        0.0,
        0.0,
        0.0,
        0.0,
        1.0
      ],
      "name": "Sketchfab_model"
    },
    {
      "children": [
        2
      ],
      "name": "ThrumboPlush.obj.cleaner.materialmerger.gles"
    },
    {
      "mesh": 0,
      "name": "Object_2"
    }
  ],
  "samplers": [
    {
      "magFilter": 9729,
      "minFilter": 9987,
      "wrapS": 10497,
      "wrapT": 10497
    }
  ],
  "scene": 0,
  "scenes": [
    {
      "name": "Sketchfab_Scene",
      "nodes": [
        0
      ]
    }
  ],
  "textures": [
    {
      "sampler": 0,
      "source": 0
    },
    {
      "sampler": 0,
      "source": 1
    },
    {
      "sampler": 0,
      "source": 2
    }
  ]
}
