{
  "accessors": [
    {
      "bufferView": 2,
      "componentType": 5126,
      "count": 13568,
      "max": [
        170.07069396972656,
        -7.823421001434326,
        986.0958251953125
      ],
      "min": [
        1.5258009433746338,
        -123.06068420410156,
        980.2850341796875
      ],
      "type": "VEC3"
    },
    {
      "bufferView": 2,
      "byteOffset": 162816,
      "componentType": 5126,
      "count": 13568,
      "max": [
        0.9736583828926086,
        0.9998989105224609,
        0.9960757493972778
      ],
      "min": [
        -0.9953331351280212,
        -0.9882314801216125,
        -0.9929643869400024
      ],
      "type": "VEC3"
    },
    {
      "bufferView": 1,
      "componentType": 5126,
      "count": 13568,
      "max": [
        0.9891110062599182,
        0.6109820008277893
      ],
      "min": [
        0.00871300045400858,
        0.3893499970436096
      ],
      "type": "VEC2"
    },
    {
      "bufferView": 0,
      "componentType": 5125,
      "count": 69888,
      "type": "SCALAR"
    },
    {
      "bufferView": 2,
      "byteOffset": 325632,
      "componentType": 5126,
      "count": 18656,
      "max": [
        179.63270568847656,
        15.35216236114502,
        1432.6624755859375
      ],
      "min": [
        148.46351623535156,
        1.5382239818572998,
        1119.5694580078125
      ],
      "type": "VEC3"
    },
    {
      "bufferView": 2,
      "byteOffset": 549504,
      "componentType": 5126,
      "count": 18656,
      "max": [
        0.996046245098114,
        0.9997684955596924,
        0.9856953620910645
      ],
      "min": [
        -0.9999375343322754,
        -0.999963641166687,
        -0.9441229104995728
      ],
      "type": "VEC3"
    },
    {
      "bufferView": 1,
      "byteOffset": 108544,
      "componentType": 5126,
      "count": 18656,
      "max": [
        0.9891110062599182,
        0.6109820008277893
      ],
      "min": [
        0.00871300045400858,
        0.3893499970436096
      ],
      "type": "VEC2"
    },
    {
      "bufferView": 0,
      "byteOffset": 279552,
      "componentType": 5125,
      "count": 96096,
      "type": "SCALAR"
    },
    {
      "bufferView": 2,
      "byteOffset": 773376,
      "componentType": 5126,
      "count": 15476,
      "max": [
        170.6617431640625,
        5.284793853759766,
        1235.8299560546875
      ],
      "min": [
        148.07913208007813,
        -11.52365779876709,
        977.470703125
      ],
      "type": "VEC3"
    },
    {
      "bufferView": 2,
      "byteOffset": 959088,
      "componentType": 5126,
      "count": 15476,
      "max": [
        0.9983434081077576,
        0.9999191164970398,
        0.9873682260513306
      ],
      "min": [
        -0.9998672604560852,
        -0.9999361038208008,
        -0.9542225003242493
      ],
      "type": "VEC3"
    },
    {
      "bufferView": 1,
      "byteOffset": 257792,
      "componentType": 5126,
      "count": 15476,
      "max": [
        0.9891110062599182,
        0.6109820008277893
      ],
      "min": [
        0.00871300045400858,
        0.3893499970436096
      ],
      "type": "VEC2"
    },
    {
      "bufferView": 0,
      "byteOffset": 663936,
      "componentType": 5125,
      "count": 79716,
      "type": "SCALAR"
    },
    {
      "bufferView": 2,
      "byteOffset": 1144800,
      "componentType": 5126,
      "count": 13568,
      "max": [
        1.5207690000534058,
        -10.23714828491211,
        986.0579223632813
      ],
      "min": [
        -170.03826904296875,
        -122.89781951904297,
        980.7163696289063
      ],
      "type": "VEC3"
    },
    {
      "bufferView": 2,
      "byteOffset": 1307616,
      "componentType": 5126,
      "count": 13568,
      "max": [
        0.9951066374778748,
        0.9998761415481567,
        0.9959045052528381
      ],
      "min": [
        -0.9775741100311279,
        -0.9800499081611633,
        -0.9949173331260681
      ],
      "type": "VEC3"
    },
    {
      "bufferView": 1,
      "byteOffset": 381600,
      "componentType": 5126,
      "count": 13568,
      "max": [
        0.9891110062599182,
        0.6109820008277893
      ],
      "min": [
        0.00871300045400858,
        0.3893499970436096
      ],
      "type": "VEC2"
    },
    {
      "bufferView": 0,
      "byteOffset": 982800,
      "componentType": 5125,
      "count": 69888,
      "type": "SCALAR"
    },
    {
      "bufferView": 2,
      "byteOffset": 1470432,
      "componentType": 5126,
      "count": 18656,
      "max": [
        -154.49002075195313,
        15.62375259399414,
        1434.291259765625
      ],
      "min": [
        -179.5004119873047,
        1.1103730201721191,
        1119.6455078125
      ],
      "type": "VEC3"
    },
    {
      "bufferView": 2,
      "byteOffset": 1694304,
      "componentType": 5126,
      "count": 18656,
      "max": [
        0.9973994493484497,
        0.9999746680259705,
        0.9897451400756836
      ],
      "min": [
        -0.9994788765907288,
        -0.9998857378959656,
        -0.9231972098350525
      ],
      "type": "VEC3"
    },
    {
      "bufferView": 1,
      "byteOffset": 490144,
      "componentType": 5126,
      "count": 18656,
      "max": [
        0.9891110062599182,
        0.6109820008277893
      ],
      "min": [
        0.00871300045400858,
        0.3893499970436096
      ],
      "type": "VEC2"
    },
    {
      "bufferView": 0,
      "byteOffset": 1262352,
      "componentType": 5125,
      "count": 96096,
      "type": "SCALAR"
    },
    {
      "bufferView": 2,
      "byteOffset": 1918176,
      "componentType": 5126,
      "count": 15476,
      "max": [
        -153.7464141845703,
        4.904626846313477,
        1237.1116943359375
      ],
      "min": [
        -170.64584350585938,
        -13.943498611450195,
        977.8922119140625
      ],
      "type": "VEC3"
    },
    {
      "bufferView": 2,
      "byteOffset": 2103888,
      "componentType": 5126,
      "count": 15476,
      "max": [
        0.9998984932899475,
        0.9999839067459106,
        0.9942994713783264
      ],
      "min": [
        -0.9981600046157837,
        -0.9999988675117493,
        -0.9396977424621582
      ],
      "type": "VEC3"
    },
    {
      "bufferView": 1,
      "byteOffset": 639392,
      "componentType": 5126,
      "count": 15476,
      "max": [
        0.9891110062599182,
        0.6109820008277893
      ],
      "min": [
        0.00871300045400858,
        0.3893499970436096
      ],
      "type": "VEC2"
    },
    {
      "bufferView": 0,
      "byteOffset": 1646736,
      "componentType": 5125,
      "count": 79716,
      "type": "SCALAR"
    },
    {
      "bufferView": 2,
      "byteOffset": 2289600,
      "componentType": 5126,
      "count": 13568,
      "max": [
        -1.0996379852294922,
        113.05010986328125,
        980.8704223632813
      ],
      "min": [
        -170.05799865722656,
        -10.22519302368164,
        964.5480346679688
      ],
      "type": "VEC3"
    },
    {
      "bufferView": 2,
      "byteOffset": 2452416,
      "componentType": 5126,
      "count": 13568,
      "max": [
        0.9971638917922974,
        0.999139130115509,
        0.999723494052887
      ],
      "min": [
        -0.974736750125885,
        -0.9999167323112488,
        -0.9961968660354614
      ],
      "type": "VEC3"
    },
    {
      "bufferView": 1,
      "byteOffset": 763200,
      "componentType": 5126,
      "count": 13568,
      "max": [
        0.9891110062599182,
        0.6109820008277893
      ],
      "min": [
        0.00871300045400858,
        0.3893499970436096
      ],
      "type": "VEC2"
    },
    {
      "bufferView": 0,
      "byteOffset": 1965600,
      "componentType": 5125,
      "count": 69888,
      "type": "SCALAR"
    },
    {
      "bufferView": 2,
      "byteOffset": 2615232,
      "componentType": 5126,
      "count": 13568,
      "max": [
        -1.0996379852294922,
        113.05010986328125,
        980.8704223632813
      ],
      "min": [
        -170.05799865722656,
        -10.22519302368164,
        964.5480346679688
      ],
      "type": "VEC3"
    },
    {
      "bufferView": 2,
      "byteOffset": 2778048,
      "componentType": 5126,
      "count": 13568,
      "max": [
        0.9971638917922974,
        0.999139130115509,
        0.999723494052887
      ],
      "min": [
        -0.974736750125885,
        -0.9999167323112488,
        -0.9961968660354614
      ],
      "type": "VEC3"
    },
    {
      "bufferView": 1,
      "byteOffset": 871744,
      "componentType": 5126,
      "count": 13568,
      "max": [
        0.9891110062599182,
        0.6109820008277893
      ],
      "min": [
        0.00871300045400858,
        0.3893499970436096
      ],
      "type": "VEC2"
    },
    {
      "bufferView": 0,
      "byteOffset": 2245152,
      "componentType": 5125,
      "count": 69888,
      "type": "SCALAR"
    },
    {
      "bufferView": 2,
      "byteOffset": 2940864,
      "componentType": 5126,
      "count": 13568,
      "max": [
        170.0070037841797,
        113.0505142211914,
        980.4388427734375
      ],
      "min": [
        -1.099498987197876,
        -7.8181281089782715,
        964.5218505859375
      ],
      "type": "VEC3"
    },
    {
      "bufferView": 2,
      "byteOffset": 3103680,
      "componentType": 5126,
      "count": 13568,
      "max": [
        0.9780895113945007,
        0.9988675117492676,
        0.9995658993721008
      ],
      "min": [
        -0.9969764947891235,
        -0.999950647354126,
        -0.9978572130203247
      ],
      "type": "VEC3"
    },
    {
      "bufferView": 1,
      "byteOffset": 980288,
      "componentType": 5126,
      "count": 13568,
      "max": [
        0.9891110062599182,
        0.6109820008277893
      ],
      "min": [
        0.00871300045400858,
        0.3893499970436096
      ],
      "type": "VEC2"
    },
    {
      "bufferView": 0,
      "byteOffset": 2524704,
      "componentType": 5125,
      "count": 69888,
      "type": "SCALAR"
    },
    {
      "bufferView": 2,
      "byteOffset": 3266496,
      "componentType": 5126,
      "count": 13568,
      "max": [
        170.0070037841797,
        113.0505142211914,
        980.4388427734375
      ],
      "min": [
        -1.099498987197876,
        -7.8181281089782715,
        964.5218505859375
      ],
      "type": "VEC3"
    },
    {
      "bufferView": 2,
      "byteOffset": 3429312,
      "componentType": 5126,
      "count": 13568,
      "max": [
        0.9780895113945007,
        0.9988675117492676,
        0.9995658993721008
      ],
      "min": [
        -0.9969764947891235,
        -0.999950647354126,
        -0.9978572130203247
      ],
      "type": "VEC3"
    },
    {
      "bufferView": 1,
      "byteOffset": 1088832,
      "componentType": 5126,
      "count": 13568,
      "max": [
        0.9891110062599182,
        0.6109820008277893
      ],
      "min": [
        0.00871300045400858,
        0.3893499970436096
      ],
      "type": "VEC2"
    },
    {
      "bufferView": 0,
      "byteOffset": 2804256,
      "componentType": 5125,
      "count": 69888,
      "type": "SCALAR"
    },
    {
      "bufferView": 2,
      "byteOffset": 3592128,
      "componentType": 5126,
      "count": 20882,
      "max": [
        332.1399230957031,
        75.7197265625,
        1448.172119140625
      ],
      "min": [
        245.54281616210938,
        -49.061553955078125,
        1391.2972412109375
      ],
      "type": "VEC3"
    },
    {
      "bufferView": 2,
      "byteOffset": 3842712,
      "componentType": 5126,
      "count": 20882,
      "max": [
        0.9996718764305115,
        0.9999204874038696,
        0.9999192357063293
      ],
      "min": [
        -0.999538004398346,
        -0.9999542236328125,
        -0.9997541308403015
      ],
      "type": "VEC3"
    },
    {
      "bufferView": 1,
      "byteOffset": 1197376,
      "componentType": 5126,
      "count": 20882,
      "max": [
        0.9891110062599182,
        0.6109820008277893
      ],
      "min": [
        0.00871300045400858,
        0.3893499970436096
      ],
      "type": "VEC2"
    },
    {
      "bufferView": 0,
      "byteOffset": 3083808,
      "componentType": 5125,
      "count": 107562,
      "type": "SCALAR"
    },
    {
      "bufferView": 2,
      "byteOffset": 4093296,
      "componentType": 5126,
      "count": 4770,
      "max": [
        248.32980346679688,
        15.297296524047852,
        1432.623291015625
      ],
      "min": [
        179.4163055419922,
        10.209994316101074,
        1392.548095703125
      ],
      "type": "VEC3"
    },
    {
      "bufferView": 2,
      "byteOffset": 4150536,
      "componentType": 5126,
      "count": 4770,
      "max": [
        0.9353471398353577,
        0.996436595916748,
        0.9970038533210754
      ],
      "min": [
        -0.9822456240653992,
        -0.9983652234077454,
        -0.9804656505584717
      ],
      "type": "VEC3"
    },
    {
      "bufferView": 1,
      "byteOffset": 1364432,
      "componentType": 5126,
      "count": 4770,
      "max": [
        0.9891110062599182,
        0.6109820008277893
      ],
      "min": [
        0.00871300045400858,
        0.3893499970436096
      ],
      "type": "VEC2"
    },
    {
      "bufferView": 0,
      "byteOffset": 3514056,
      "componentType": 5125,
      "count": 24570,
      "type": "SCALAR"
    },
    {
      "bufferView": 2,
      "byteOffset": 4207776,
      "componentType": 5126,
      "count": 20882,
      "max": [
        -243.6448974609375,
        75.78790283203125,
        1448.520263671875
      ],
      "min": [
        -331.69091796875,
        -45.938995361328125,
        1389.75146484375
      ],
      "type": "VEC3"
    },
    {
      "bufferView": 2,
      "byteOffset": 4458360,
      "componentType": 5126,
      "count": 20882,
      "max": [
        0.9999634623527527,
        0.9999557733535767,
        0.9999971389770508
      ],
      "min": [
        -0.9998766183853149,
        -0.9998151063919067,
        -0.9999691247940063
      ],
      "type": "VEC3"
    },
    {
      "bufferView": 1,
      "byteOffset": 1402592,
      "componentType": 5126,
      "count": 20882,
      "max": [
        0.9891110062599182,
        0.6109820008277893
      ],
      "min": [
        0.00871300045400858,
        0.3893499970436096
      ],
      "type": "VEC2"
    },
    {
      "bufferView": 0,
      "byteOffset": 3612336,
      "componentType": 5125,
      "count": 107562,
      "type": "SCALAR"
    },
    {
      "bufferView": 2,
      "byteOffset": 4708944,
      "componentType": 5126,
      "count": 4770,
      "max": [
        -179.2389678955078,
        15.372868537902832,
        1434.240234375
      ],
      "min": [
        -246.21322631835938,
        12.022553443908691,
        1393.0384521484375
      ],
      "type": "VEC3"
    },
    {
      "bufferView": 2,
      "byteOffset": 4766184,
      "componentType": 5126,
      "count": 4770,
      "max": [
        0.9955289959907532,
        0.9999481439590454,
        0.9971526265144348
      ],
      "min": [
        -0.9648442268371582,
        -0.9999335408210754,
        -0.9961801171302795
      ],
      "type": "VEC3"
    },
    {
      "bufferView": 1,
      "byteOffset": 1569648,
      "componentType": 5126,
      "count": 4770,
      "max": [
        0.9891110062599182,
        0.6109820008277893
      ],
      "min": [
        0.00871300045400858,
        0.3893499970436096
      ],
      "type": "VEC2"
    },
    {
      "bufferView": 0,
      "byteOffset": 4042584,
      "componentType": 5125,
      "count": 24570,
      "type": "SCALAR"
    },
    {
      "bufferView": 2,
      "byteOffset": 4823424,
      "componentType": 5126,
      "count": 9631,
      "max": [
        333.72845458984375,
        125.96014404296875,
        1659.105712890625
      ],
      "min": [
        -333.286865234375,
        -127.96868133544922,
        961.5193481445313
      ],
      "type": "VEC3"
    },
    {
      "bufferView": 2,
      "byteOffset": 4938996,
      "componentType": 5126,
      "count": 9631,
      "max": [
        0.9997988939285278,
        0.9999963641166687,
        0.9815365076065063
      ],
      "min": [
        -0.9999593496322632,
        -0.9999992251396179,
        -0.9821366667747498
      ],
      "type": "VEC3"
    },
    {
      "bufferView": 1,
      "byteOffset": 1607808,
      "componentType": 5126,
      "count": 9631,
      "max": [
        1.4039239883422852,
        2.583508014678955
      ],
      "min": [
        -1.4039239883422852,
        -2.5835070610046387
      ],
      "type": "VEC2"
    },
    {
      "bufferView": 0,
      "byteOffset": 4140864,
      "componentType": 5125,
      "count": 50967,
      "type": "SCALAR"
    }
  ],
  "asset": {
    "extras": {
      "author": "Pieter Ferreira (https://sketchfab.com/Badboy17Aiden)",
      "license": "CC-BY-4.0 (http://creativecommons.org/licenses/by/4.0/)",
      "source": "https://sketchfab.com/3d-models/standard-t-shirt-1815c01895bd4538bc0bd05c3394698d",
      "title": "Standard T-shirt"
    },
    "generator": "Sketchfab-12.65.0",
    "version": "2.0"
  },
  "bufferViews": [
    {
      "buffer": 0,
      "byteLength": 4344732,
      "name": "floatBufferViews",
      "target": 34963
    },
    {
      "buffer": 0,
      "byteLength": 1684856,
      "byteOffset": 4344732,
      "byteStride": 8,
      "name": "floatBufferViews",
      "target": 34962
    },
    {
      "buffer": 0,
      "byteLength": 5054568,
      "byteOffset": 6029588,
      "byteStride": 12,
      "name": "floatBufferViews",
      "target": 34962
    }
  ],
  "buffers": [
    {
      "byteLength": 11084156,
      "uri": "scene.bin"
    }
  ],
  "materials": [
    {
      "alphaMode": "BLEND",
      "doubleSided": true,
      "name": "Material115051",
      "pbrMetallicRoughness": {
        "baseColorFactor": [
          0.24410259590182323,
          0.0,
          0.0,
          0.0
        ],
        "roughnessFactor": 0.6
      }
    },
    {
      "doubleSided": true,
      "name": "Material20586",
      "pbrMetallicRoughness": {
        "baseColorFactor": [
          0.2748152905337402,
          0.0,
          0.0,
          1.0
        ]
      }
    }
  ],
  "meshes": [
    {
      "name": "Object_0",
      "primitives": [
        {
          "attributes": {
            "NORMAL": 1,
            "POSITION": 0,
            "TEXCOORD_0": 2
          },
          "indices": 3,
          "material": 0,
          "mode": 4
        }
      ]
    },
    {
      "name": "Object_1",
      "primitives": [
        {
          "attributes": {
            "NORMAL": 5,
            "POSITION": 4,
            "TEXCOORD_0": 6
          },
          "indices": 7,
          "material": 0,
          "mode": 4
        }
      ]
    },
    {
      "name": "Object_2",
      "primitives": [
        {
          "attributes": {
            "NORMAL": 9,
            "POSITION": 8,
            "TEXCOORD_0": 10
          },
          "indices": 11,
          "material": 0,
          "mode": 4
        }
      ]
    },
    {
      "name": "Object_3",
      "primitives": [
        {
          "attributes": {
            "NORMAL": 13,
            "POSITION": 12,
            "TEXCOORD_0": 14
          },
          "indices": 15,
          "material": 0,
          "mode": 4
        }
      ]
    },
    {
      "name": "Object_4",
      "primitives": [
        {
          "attributes": {
            "NORMAL": 17,
            "POSITION": 16,
            "TEXCOORD_0": 18
          },
          "indices": 19,
          "material": 0,
          "mode": 4
        }
      ]
    },
    {
      "name": "Object_5",
      "primitives": [
        {
          "attributes": {
            "NORMAL": 21,
            "POSITION": 20,
            "TEXCOORD_0": 22
          },
          "indices": 23,
          "material": 0,
          "mode": 4
        }
      ]
    },
    {
      "name": "Object_6",
      "primitives": [
        {
          "attributes": {
            "NORMAL": 25,
            "POSITION": 24,
            "TEXCOORD_0": 26
          },
          "indices": 27,
          "material": 0,
          "mode": 4
        }
      ]
    },
    {
      "name": "Object_7",
      "primitives": [
        {
          "attributes": {
            "NORMAL": 29,
            "POSITION": 28,
            "TEXCOORD_0": 30
          },
          "indices": 31,
          "material": 0,
          "mode": 4
        }
      ]
    },
    {
      "name": "Object_8",
      "primitives": [
        {
          "attributes": {
            "NORMAL": 33,
            "POSITION": 32,
            "TEXCOORD_0": 34
          },
          "indices": 35,
          "material": 0,
          "mode": 4
        }
      ]
    },
    {
      "name": "Object_9",
      "primitives": [
        {
          "attributes": {
            "NORMAL": 37,
            "POSITION": 36,
            "TEXCOORD_0": 38
          },
          "indices": 39,
          "material": 0,
          "mode": 4
        }
      ]
    },
    {
      "name": "Object_10",
      "primitives": [
        {
          "attributes": {
            "NORMAL": 41,
            "POSITION": 40,
            "TEXCOORD_0": 42
          },
          "indices": 43,
          "material": 0,
          "mode": 4
        }
      ]
    },
    {
      "name": "Object_11",
      "primitives": [
        {
          "attributes": {
            "NORMAL": 45,
            "POSITION": 44,
            "TEXCOORD_0": 46
          },
          "indices": 47,
          "material": 0,
          "mode": 4
        }
      ]
    },
    {
      "name": "Object_12",
      "primitives": [
        {
          "attributes": {
            "NORMAL": 49,
            "POSITION": 48,
            "TEXCOORD_0": 50
          },
          "indices": 51,
          "material": 0,
          "mode": 4
        }
      ]
    },
    {
      "name": "Object_13",
      "primitives": [
        {
          "attributes": {
            "NORMAL": 53,
            "POSITION": 52,
            "TEXCOORD_0": 54
          },
          "indices": 55,
          "material": 0,
          "mode": 4
        }
      ]
    },
    {
      "name": "Object_14",
      "primitives": [
        {
          "attributes": {
            "NORMAL": 57,
            "POSITION": 56,
            "TEXCOORD_0": 58
          },
          "indices": 59,
          "material": 1,
          "mode": 4
        }
      ]
    }
  ],
  "nodes": [
    {
      "children": [
        1
      ],
      "matrix": [
        1.0,
        0.0,
        0.0,
        0.0,
        0.0,
        2.220446049250313e-16,
        -1.0,
        0.0,
        0.0,
        1.0,
        2.220446049250313e-16,
        0.0,
        0.0,
        0.0,
        0.0,
        1.0
      ],
      "name": "Sketchfab_model"
    },
    {
      "children": [
        2,
        3,
        4,
        5,
        6,
        7,
        8,
        9,
        10,
        11,
        12,
        13,
        14,
        15,
        16
      ],
      "name": "tshirt.obj.cleaner.materialmerger.gles"
    },
    {
      "mesh": 0,
      "name": "Object_2"
    },
    {
      "mesh": 1,
      "name": "Object_3"
    },
    {
      "mesh": 2,
      "name": "Object_4"
    },
    {
      "mesh": 3,
      "name": "Object_5"
    },
    {
      "mesh": 4,
      "name": "Object_6"
    },
    {
      "mesh": 5,
      "name": "Object_7"
    },
    {
      "mesh": 6,
      "name": "Object_8"
    },
    {
      "mesh": 7,
      "name": "Object_9"
    },
    {
      "mesh": 8,
      "name": "Object_10"
    },
    {
      "mesh": 9,
      "name": "Object_11"
    },
    {
      "mesh": 10,
      "name": "Object_12"
    },
    {
      "mesh": 11,
      "name": "Object_13"
    },
    {
      "mesh": 12,
      "name": "Object_14"
    },
    {
      "mesh": 13,
      "name": "Object_15"
    },
    {
      "mesh": 14,
      "name": "Object_16"
    }
  ],
  "scene": 0,
  "scenes": [
    {
      "name": "Sketchfab_Scene",
      "nodes": [
        0
      ]
    }
  ]
}
